<?xml version="1.0" encoding="utf-8" standalone="no"?>
<!DOCTYPE svg PUBLIC "-//W3C//DTD SVG 1.1//EN"
  "http://www.w3.org/Graphics/SVG/1.1/DTD/svg11.dtd">
<!-- Created with matplotlib (http://matplotlib.org/) -->
<svg height="432pt" version="1.1" viewBox="0 0 576 432" width="576pt" xmlns="http://www.w3.org/2000/svg" xmlns:xlink="http://www.w3.org/1999/xlink">
 <defs>
  <style type="text/css">
*{stroke-linecap:butt;stroke-linejoin:round;stroke-miterlimit:100000;}
  </style>
 </defs>
 <g id="figure_1">
  <g id="patch_1">
   <path d="M 0 432 
L 576 432 
L 576 0 
L 0 0 
z
" style="fill:#ffffff;"/>
  </g>
  <g id="axes_1">
   <g id="patch_2">
    <path d="M 72 388.8 
L 518.4 388.8 
L 518.4 43.2 
L 72 43.2 
z
" style="fill:#ffffff;"/>
   </g>
   <g id="line2d_1">
    <path clip-path="url(#paea0ca40b6)" d="M 72 87.140571 
L 88.87392 112.32 
L 110.56896 128.118857 
L 146.19168 151.323429 
L 179.136 164.16 
L 209.40192 179.958857 
L 237.168 190.820571 
L 263.86272 200.694857 
L 290.82528 211.062857 
L 317.43072 219.456 
L 344.21472 227.849143 
L 371.088 236.242286 
L 397.96128 244.635429 
L 424.656 251.053714 
L 451.44 257.472 
L 478.31328 264.877714 
" style="fill:none;stroke:#0000ff;stroke-linecap:square;"/>
    <defs>
     <path d="M 0 3 
C 0.795609 3 1.55874 2.683901 2.12132 2.12132 
C 2.683901 1.55874 3 0.795609 3 0 
C 3 -0.795609 2.683901 -1.55874 2.12132 -2.12132 
C 1.55874 -2.683901 0.795609 -3 0 -3 
C -0.795609 -3 -1.55874 -2.683901 -2.12132 -2.12132 
C -2.683901 -1.55874 -3 -0.795609 -3 0 
C -3 0.795609 -2.683901 1.55874 -2.12132 2.12132 
C -1.55874 2.683901 -0.795609 3 0 3 
z
" id="m5e95ad2a3c" style="stroke:#000000;stroke-width:0.5;"/>
    </defs>
    <g clip-path="url(#paea0ca40b6)">
     <use style="fill:#0000ff;stroke:#000000;stroke-width:0.5;" x="72.0" xlink:href="#m5e95ad2a3c" y="87.1405714286"/>
     <use style="fill:#0000ff;stroke:#000000;stroke-width:0.5;" x="88.87392" xlink:href="#m5e95ad2a3c" y="112.32"/>
     <use style="fill:#0000ff;stroke:#000000;stroke-width:0.5;" x="110.56896" xlink:href="#m5e95ad2a3c" y="128.118857143"/>
     <use style="fill:#0000ff;stroke:#000000;stroke-width:0.5;" x="146.19168" xlink:href="#m5e95ad2a3c" y="151.323428571"/>
     <use style="fill:#0000ff;stroke:#000000;stroke-width:0.5;" x="179.136" xlink:href="#m5e95ad2a3c" y="164.16"/>
     <use style="fill:#0000ff;stroke:#000000;stroke-width:0.5;" x="209.40192" xlink:href="#m5e95ad2a3c" y="179.958857143"/>
     <use style="fill:#0000ff;stroke:#000000;stroke-width:0.5;" x="237.168" xlink:href="#m5e95ad2a3c" y="190.820571429"/>
     <use style="fill:#0000ff;stroke:#000000;stroke-width:0.5;" x="263.86272" xlink:href="#m5e95ad2a3c" y="200.694857143"/>
     <use style="fill:#0000ff;stroke:#000000;stroke-width:0.5;" x="290.82528" xlink:href="#m5e95ad2a3c" y="211.062857143"/>
     <use style="fill:#0000ff;stroke:#000000;stroke-width:0.5;" x="317.43072" xlink:href="#m5e95ad2a3c" y="219.456"/>
     <use style="fill:#0000ff;stroke:#000000;stroke-width:0.5;" x="344.21472" xlink:href="#m5e95ad2a3c" y="227.849142857"/>
     <use style="fill:#0000ff;stroke:#000000;stroke-width:0.5;" x="371.088" xlink:href="#m5e95ad2a3c" y="236.242285714"/>
     <use style="fill:#0000ff;stroke:#000000;stroke-width:0.5;" x="397.96128" xlink:href="#m5e95ad2a3c" y="244.635428571"/>
     <use style="fill:#0000ff;stroke:#000000;stroke-width:0.5;" x="424.656" xlink:href="#m5e95ad2a3c" y="251.053714286"/>
     <use style="fill:#0000ff;stroke:#000000;stroke-width:0.5;" x="451.44" xlink:href="#m5e95ad2a3c" y="257.472"/>
     <use style="fill:#0000ff;stroke:#000000;stroke-width:0.5;" x="478.31328" xlink:href="#m5e95ad2a3c" y="264.877714286"/>
    </g>
   </g>
   <g id="line2d_2">
    <path clip-path="url(#paea0ca40b6)" d="M 72 88.621714 
L 90.12384 124.662857 
L 119.22912 166.134857 
L 151.19136 200.694857 
L 181.368 224.393143 
L 213.9552 244.635429 
L 241.36416 259.446857 
L 268.14816 272.777143 
L 295.02144 284.132571 
L 321.62688 294.006857 
L 348.41088 302.893714 
L 375.28416 310.299429 
L 402.06816 317.211429 
L 428.85216 323.629714 
L 455.63616 329.060571 
L 482.50944 334.491429 
" style="fill:none;stroke:#008000;stroke-linecap:square;"/>
    <defs>
     <path d="M 0 3 
C 0.795609 3 1.55874 2.683901 2.12132 2.12132 
C 2.683901 1.55874 3 0.795609 3 0 
C 3 -0.795609 2.683901 -1.55874 2.12132 -2.12132 
C 1.55874 -2.683901 0.795609 -3 0 -3 
C -0.795609 -3 -1.55874 -2.683901 -2.12132 -2.12132 
C -2.683901 -1.55874 -3 -0.795609 -3 0 
C -3 0.795609 -2.683901 1.55874 -2.12132 2.12132 
C -1.55874 2.683901 -0.795609 3 0 3 
z
" id="m4f63781bba" style="stroke:#000000;stroke-width:0.5;"/>
    </defs>
    <g clip-path="url(#paea0ca40b6)">
     <use style="fill:#008000;stroke:#000000;stroke-width:0.5;" x="72.0" xlink:href="#m4f63781bba" y="88.6217142857"/>
     <use style="fill:#008000;stroke:#000000;stroke-width:0.5;" x="90.12384" xlink:href="#m4f63781bba" y="124.662857143"/>
     <use style="fill:#008000;stroke:#000000;stroke-width:0.5;" x="119.22912" xlink:href="#m4f63781bba" y="166.134857143"/>
     <use style="fill:#008000;stroke:#000000;stroke-width:0.5;" x="151.19136" xlink:href="#m4f63781bba" y="200.694857143"/>
     <use style="fill:#008000;stroke:#000000;stroke-width:0.5;" x="181.368" xlink:href="#m4f63781bba" y="224.393142857"/>
     <use style="fill:#008000;stroke:#000000;stroke-width:0.5;" x="213.9552" xlink:href="#m4f63781bba" y="244.635428571"/>
     <use style="fill:#008000;stroke:#000000;stroke-width:0.5;" x="241.36416" xlink:href="#m4f63781bba" y="259.446857143"/>
     <use style="fill:#008000;stroke:#000000;stroke-width:0.5;" x="268.14816" xlink:href="#m4f63781bba" y="272.777142857"/>
     <use style="fill:#008000;stroke:#000000;stroke-width:0.5;" x="295.02144" xlink:href="#m4f63781bba" y="284.132571429"/>
     <use style="fill:#008000;stroke:#000000;stroke-width:0.5;" x="321.62688" xlink:href="#m4f63781bba" y="294.006857143"/>
     <use style="fill:#008000;stroke:#000000;stroke-width:0.5;" x="348.41088" xlink:href="#m4f63781bba" y="302.893714286"/>
     <use style="fill:#008000;stroke:#000000;stroke-width:0.5;" x="375.28416" xlink:href="#m4f63781bba" y="310.299428571"/>
     <use style="fill:#008000;stroke:#000000;stroke-width:0.5;" x="402.06816" xlink:href="#m4f63781bba" y="317.211428571"/>
     <use style="fill:#008000;stroke:#000000;stroke-width:0.5;" x="428.85216" xlink:href="#m4f63781bba" y="323.629714286"/>
     <use style="fill:#008000;stroke:#000000;stroke-width:0.5;" x="455.63616" xlink:href="#m4f63781bba" y="329.060571429"/>
     <use style="fill:#008000;stroke:#000000;stroke-width:0.5;" x="482.50944" xlink:href="#m4f63781bba" y="334.491428571"/>
    </g>
   </g>
   <g id="line2d_3">
    <path clip-path="url(#paea0ca40b6)" d="M 72 98.496 
L 94.49856 148.361143 
L 126.99648 196.745143 
L 153.86976 222.418286 
L 188.86752 251.053714 
L 217.9728 267.346286 
L 244.93536 281.664 
L 271.71936 294.500571 
L 298.59264 305.362286 
L 325.46592 314.249143 
L 352.24992 323.136 
L 379.03392 330.541714 
L 405.81792 336.96 
L 432.42336 342.884571 
L 459.29664 347.821714 
L 486.08064 352.265143 
" style="fill:none;stroke:#ff0000;stroke-linecap:square;"/>
    <defs>
     <path d="M 0 3 
C 0.795609 3 1.55874 2.683901 2.12132 2.12132 
C 2.683901 1.55874 3 0.795609 3 0 
C 3 -0.795609 2.683901 -1.55874 2.12132 -2.12132 
C 1.55874 -2.683901 0.795609 -3 0 -3 
C -0.795609 -3 -1.55874 -2.683901 -2.12132 -2.12132 
C -2.683901 -1.55874 -3 -0.795609 -3 0 
C -3 0.795609 -2.683901 1.55874 -2.12132 2.12132 
C -1.55874 2.683901 -0.795609 3 0 3 
z
" id="m658bd06a79" style="stroke:#000000;stroke-width:0.5;"/>
    </defs>
    <g clip-path="url(#paea0ca40b6)">
     <use style="fill:#ff0000;stroke:#000000;stroke-width:0.5;" x="72.0" xlink:href="#m658bd06a79" y="98.496"/>
     <use style="fill:#ff0000;stroke:#000000;stroke-width:0.5;" x="94.49856" xlink:href="#m658bd06a79" y="148.361142857"/>
     <use style="fill:#ff0000;stroke:#000000;stroke-width:0.5;" x="126.99648" xlink:href="#m658bd06a79" y="196.745142857"/>
     <use style="fill:#ff0000;stroke:#000000;stroke-width:0.5;" x="153.86976" xlink:href="#m658bd06a79" y="222.418285714"/>
     <use style="fill:#ff0000;stroke:#000000;stroke-width:0.5;" x="188.86752" xlink:href="#m658bd06a79" y="251.053714286"/>
     <use style="fill:#ff0000;stroke:#000000;stroke-width:0.5;" x="217.9728" xlink:href="#m658bd06a79" y="267.346285714"/>
     <use style="fill:#ff0000;stroke:#000000;stroke-width:0.5;" x="244.93536" xlink:href="#m658bd06a79" y="281.664"/>
     <use style="fill:#ff0000;stroke:#000000;stroke-width:0.5;" x="271.71936" xlink:href="#m658bd06a79" y="294.500571429"/>
     <use style="fill:#ff0000;stroke:#000000;stroke-width:0.5;" x="298.59264" xlink:href="#m658bd06a79" y="305.362285714"/>
     <use style="fill:#ff0000;stroke:#000000;stroke-width:0.5;" x="325.46592" xlink:href="#m658bd06a79" y="314.249142857"/>
     <use style="fill:#ff0000;stroke:#000000;stroke-width:0.5;" x="352.24992" xlink:href="#m658bd06a79" y="323.136"/>
     <use style="fill:#ff0000;stroke:#000000;stroke-width:0.5;" x="379.03392" xlink:href="#m658bd06a79" y="330.541714286"/>
     <use style="fill:#ff0000;stroke:#000000;stroke-width:0.5;" x="405.81792" xlink:href="#m658bd06a79" y="336.96"/>
     <use style="fill:#ff0000;stroke:#000000;stroke-width:0.5;" x="432.42336" xlink:href="#m658bd06a79" y="342.884571429"/>
     <use style="fill:#ff0000;stroke:#000000;stroke-width:0.5;" x="459.29664" xlink:href="#m658bd06a79" y="347.821714286"/>
     <use style="fill:#ff0000;stroke:#000000;stroke-width:0.5;" x="486.08064" xlink:href="#m658bd06a79" y="352.265142857"/>
    </g>
   </g>
   <g id="line2d_4">
    <path clip-path="url(#paea0ca40b6)" d="M 72 112.813714 
L 95.6592 159.716571 
L 130.29984 206.125714 
L 161.54784 235.748571 
L 193.68864 256.484571 
L 221.90112 273.764571 
L 248.7744 287.094857 
L 275.5584 299.931429 
L 302.43168 310.299429 
L 329.1264 319.68 
L 356.08896 327.579429 
L 382.78368 335.478857 
L 409.4784 341.403429 
L 436.88736 347.821714 
L 463.0464 352.758857 
L 489.8304 357.696 
" style="fill:none;stroke:#00bfbf;stroke-linecap:square;"/>
    <defs>
     <path d="M 0 3 
C 0.795609 3 1.55874 2.683901 2.12132 2.12132 
C 2.683901 1.55874 3 0.795609 3 0 
C 3 -0.795609 2.683901 -1.55874 2.12132 -2.12132 
C 1.55874 -2.683901 0.795609 -3 0 -3 
C -0.795609 -3 -1.55874 -2.683901 -2.12132 -2.12132 
C -2.683901 -1.55874 -3 -0.795609 -3 0 
C -3 0.795609 -2.683901 1.55874 -2.12132 2.12132 
C -1.55874 2.683901 -0.795609 3 0 3 
z
" id="mc2a7ff897a" style="stroke:#000000;stroke-width:0.5;"/>
    </defs>
    <g clip-path="url(#paea0ca40b6)">
     <use style="fill:#00bfbf;stroke:#000000;stroke-width:0.5;" x="72.0" xlink:href="#mc2a7ff897a" y="112.813714286"/>
     <use style="fill:#00bfbf;stroke:#000000;stroke-width:0.5;" x="95.6592" xlink:href="#mc2a7ff897a" y="159.716571429"/>
     <use style="fill:#00bfbf;stroke:#000000;stroke-width:0.5;" x="130.29984" xlink:href="#mc2a7ff897a" y="206.125714286"/>
     <use style="fill:#00bfbf;stroke:#000000;stroke-width:0.5;" x="161.54784" xlink:href="#mc2a7ff897a" y="235.748571429"/>
     <use style="fill:#00bfbf;stroke:#000000;stroke-width:0.5;" x="193.68864" xlink:href="#mc2a7ff897a" y="256.484571429"/>
     <use style="fill:#00bfbf;stroke:#000000;stroke-width:0.5;" x="221.90112" xlink:href="#mc2a7ff897a" y="273.764571429"/>
     <use style="fill:#00bfbf;stroke:#000000;stroke-width:0.5;" x="248.7744" xlink:href="#mc2a7ff897a" y="287.094857143"/>
     <use style="fill:#00bfbf;stroke:#000000;stroke-width:0.5;" x="275.5584" xlink:href="#mc2a7ff897a" y="299.931428571"/>
     <use style="fill:#00bfbf;stroke:#000000;stroke-width:0.5;" x="302.43168" xlink:href="#mc2a7ff897a" y="310.299428571"/>
     <use style="fill:#00bfbf;stroke:#000000;stroke-width:0.5;" x="329.1264" xlink:href="#mc2a7ff897a" y="319.68"/>
     <use style="fill:#00bfbf;stroke:#000000;stroke-width:0.5;" x="356.08896" xlink:href="#mc2a7ff897a" y="327.579428571"/>
     <use style="fill:#00bfbf;stroke:#000000;stroke-width:0.5;" x="382.78368" xlink:href="#mc2a7ff897a" y="335.478857143"/>
     <use style="fill:#00bfbf;stroke:#000000;stroke-width:0.5;" x="409.4784" xlink:href="#mc2a7ff897a" y="341.403428571"/>
     <use style="fill:#00bfbf;stroke:#000000;stroke-width:0.5;" x="436.88736" xlink:href="#mc2a7ff897a" y="347.821714286"/>
     <use style="fill:#00bfbf;stroke:#000000;stroke-width:0.5;" x="463.0464" xlink:href="#mc2a7ff897a" y="352.758857143"/>
     <use style="fill:#00bfbf;stroke:#000000;stroke-width:0.5;" x="489.8304" xlink:href="#mc2a7ff897a" y="357.696"/>
    </g>
   </g>
   <g id="line2d_5">
    <path clip-path="url(#paea0ca40b6)" d="M 72 103.433143 
L 97.8912 152.310857 
L 133.51392 205.138286 
L 165.56544 234.761143 
L 197.08128 257.472 
L 225.29376 274.258286 
L 251.8992 290.550857 
L 278.86176 303.387429 
L 305.55648 314.249143 
L 332.34048 321.161143 
L 359.21376 330.048 
L 385.99776 337.453714 
L 412.69248 343.872 
L 439.74432 348.809143 
L 466.34976 355.227429 
L 493.13376 358.683429 
" style="fill:none;stroke:#bf00bf;stroke-linecap:square;"/>
    <defs>
     <path d="M 0 3 
C 0.795609 3 1.55874 2.683901 2.12132 2.12132 
C 2.683901 1.55874 3 0.795609 3 0 
C 3 -0.795609 2.683901 -1.55874 2.12132 -2.12132 
C 1.55874 -2.683901 0.795609 -3 0 -3 
C -0.795609 -3 -1.55874 -2.683901 -2.12132 -2.12132 
C -2.683901 -1.55874 -3 -0.795609 -3 0 
C -3 0.795609 -2.683901 1.55874 -2.12132 2.12132 
C -1.55874 2.683901 -0.795609 3 0 3 
z
" id="m1f8a9653da" style="stroke:#000000;stroke-width:0.5;"/>
    </defs>
    <g clip-path="url(#paea0ca40b6)">
     <use style="fill:#bf00bf;stroke:#000000;stroke-width:0.5;" x="72.0" xlink:href="#m1f8a9653da" y="103.433142857"/>
     <use style="fill:#bf00bf;stroke:#000000;stroke-width:0.5;" x="97.8912" xlink:href="#m1f8a9653da" y="152.310857143"/>
     <use style="fill:#bf00bf;stroke:#000000;stroke-width:0.5;" x="133.51392" xlink:href="#m1f8a9653da" y="205.138285714"/>
     <use style="fill:#bf00bf;stroke:#000000;stroke-width:0.5;" x="165.56544" xlink:href="#m1f8a9653da" y="234.761142857"/>
     <use style="fill:#bf00bf;stroke:#000000;stroke-width:0.5;" x="197.08128" xlink:href="#m1f8a9653da" y="257.472"/>
     <use style="fill:#bf00bf;stroke:#000000;stroke-width:0.5;" x="225.29376" xlink:href="#m1f8a9653da" y="274.258285714"/>
     <use style="fill:#bf00bf;stroke:#000000;stroke-width:0.5;" x="251.8992" xlink:href="#m1f8a9653da" y="290.550857143"/>
     <use style="fill:#bf00bf;stroke:#000000;stroke-width:0.5;" x="278.86176" xlink:href="#m1f8a9653da" y="303.387428571"/>
     <use style="fill:#bf00bf;stroke:#000000;stroke-width:0.5;" x="305.55648" xlink:href="#m1f8a9653da" y="314.249142857"/>
     <use style="fill:#bf00bf;stroke:#000000;stroke-width:0.5;" x="332.34048" xlink:href="#m1f8a9653da" y="321.161142857"/>
     <use style="fill:#bf00bf;stroke:#000000;stroke-width:0.5;" x="359.21376" xlink:href="#m1f8a9653da" y="330.048"/>
     <use style="fill:#bf00bf;stroke:#000000;stroke-width:0.5;" x="385.99776" xlink:href="#m1f8a9653da" y="337.453714286"/>
     <use style="fill:#bf00bf;stroke:#000000;stroke-width:0.5;" x="412.69248" xlink:href="#m1f8a9653da" y="343.872"/>
     <use style="fill:#bf00bf;stroke:#000000;stroke-width:0.5;" x="439.74432" xlink:href="#m1f8a9653da" y="348.809142857"/>
     <use style="fill:#bf00bf;stroke:#000000;stroke-width:0.5;" x="466.34976" xlink:href="#m1f8a9653da" y="355.227428571"/>
     <use style="fill:#bf00bf;stroke:#000000;stroke-width:0.5;" x="493.13376" xlink:href="#m1f8a9653da" y="358.683428571"/>
    </g>
   </g>
   <g id="patch_3">
    <path d="M 72 388.8 
L 518.4 388.8 
" style="fill:none;stroke:#000000;stroke-linecap:square;stroke-linejoin:miter;"/>
   </g>
   <g id="patch_4">
    <path d="M 518.4 388.8 
L 518.4 43.2 
" style="fill:none;stroke:#000000;stroke-linecap:square;stroke-linejoin:miter;"/>
   </g>
   <g id="patch_5">
    <path d="M 72 43.2 
L 518.4 43.2 
" style="fill:none;stroke:#000000;stroke-linecap:square;stroke-linejoin:miter;"/>
   </g>
   <g id="patch_6">
    <path d="M 72 388.8 
L 72 43.2 
" style="fill:none;stroke:#000000;stroke-linecap:square;stroke-linejoin:miter;"/>
   </g>
   <g id="matplotlib.axis_1">
    <g id="xtick_1">
     <g id="line2d_6">
      <defs>
       <path d="M 0 0 
L 0 -4 
" id="m363e9b22e9" style="stroke:#000000;stroke-width:0.5;"/>
      </defs>
      <g>
       <use style="stroke:#000000;stroke-width:0.5;" x="72.0" xlink:href="#m363e9b22e9" y="388.8"/>
      </g>
     </g>
     <g id="line2d_7">
      <defs>
       <path d="M 0 0 
L 0 4 
" id="mea0e2b2e36" style="stroke:#000000;stroke-width:0.5;"/>
      </defs>
      <g>
       <use style="stroke:#000000;stroke-width:0.5;" x="72.0" xlink:href="#mea0e2b2e36" y="43.2"/>
      </g>
     </g>
     <g id="text_1">
      <!-- 0 -->
      <defs>
       <path d="M 31.78125 66.40625 
Q 24.171875 66.40625 20.328125 58.90625 
Q 16.5 51.421875 16.5 36.375 
Q 16.5 21.390625 20.328125 13.890625 
Q 24.171875 6.390625 31.78125 6.390625 
Q 39.453125 6.390625 43.28125 13.890625 
Q 47.125 21.390625 47.125 36.375 
Q 47.125 51.421875 43.28125 58.90625 
Q 39.453125 66.40625 31.78125 66.40625 
M 31.78125 74.21875 
Q 44.046875 74.21875 50.515625 64.515625 
Q 56.984375 54.828125 56.984375 36.375 
Q 56.984375 17.96875 50.515625 8.265625 
Q 44.046875 -1.421875 31.78125 -1.421875 
Q 19.53125 -1.421875 13.0625 8.265625 
Q 6.59375 17.96875 6.59375 36.375 
Q 6.59375 54.828125 13.0625 64.515625 
Q 19.53125 74.21875 31.78125 74.21875 
" id="BitstreamVeraSans-Roman-30"/>
      </defs>
      <g transform="translate(68.1825 401.918125)scale(0.12 -0.12)">
       <use xlink:href="#BitstreamVeraSans-Roman-30"/>
      </g>
     </g>
    </g>
    <g id="xtick_2">
     <g id="line2d_8">
      <g>
       <use style="stroke:#000000;stroke-width:0.5;" x="161.28" xlink:href="#m363e9b22e9" y="388.8"/>
      </g>
     </g>
     <g id="line2d_9">
      <g>
       <use style="stroke:#000000;stroke-width:0.5;" x="161.28" xlink:href="#mea0e2b2e36" y="43.2"/>
      </g>
     </g>
     <g id="text_2">
      <!-- 1000 -->
      <defs>
       <path d="M 12.40625 8.296875 
L 28.515625 8.296875 
L 28.515625 63.921875 
L 10.984375 60.40625 
L 10.984375 69.390625 
L 28.421875 72.90625 
L 38.28125 72.90625 
L 38.28125 8.296875 
L 54.390625 8.296875 
L 54.390625 0 
L 12.40625 0 
z
" id="BitstreamVeraSans-Roman-31"/>
      </defs>
      <g transform="translate(146.01 401.918125)scale(0.12 -0.12)">
       <use xlink:href="#BitstreamVeraSans-Roman-31"/>
       <use x="63.623046875" xlink:href="#BitstreamVeraSans-Roman-30"/>
       <use x="127.24609375" xlink:href="#BitstreamVeraSans-Roman-30"/>
       <use x="190.869140625" xlink:href="#BitstreamVeraSans-Roman-30"/>
      </g>
     </g>
    </g>
    <g id="xtick_3">
     <g id="line2d_10">
      <g>
       <use style="stroke:#000000;stroke-width:0.5;" x="250.56" xlink:href="#m363e9b22e9" y="388.8"/>
      </g>
     </g>
     <g id="line2d_11">
      <g>
       <use style="stroke:#000000;stroke-width:0.5;" x="250.56" xlink:href="#mea0e2b2e36" y="43.2"/>
      </g>
     </g>
     <g id="text_3">
      <!-- 2000 -->
      <defs>
       <path d="M 19.1875 8.296875 
L 53.609375 8.296875 
L 53.609375 0 
L 7.328125 0 
L 7.328125 8.296875 
Q 12.9375 14.109375 22.625 23.890625 
Q 32.328125 33.6875 34.8125 36.53125 
Q 39.546875 41.84375 41.421875 45.53125 
Q 43.3125 49.21875 43.3125 52.78125 
Q 43.3125 58.59375 39.234375 62.25 
Q 35.15625 65.921875 28.609375 65.921875 
Q 23.96875 65.921875 18.8125 64.3125 
Q 13.671875 62.703125 7.8125 59.421875 
L 7.8125 69.390625 
Q 13.765625 71.78125 18.9375 73 
Q 24.125 74.21875 28.421875 74.21875 
Q 39.75 74.21875 46.484375 68.546875 
Q 53.21875 62.890625 53.21875 53.421875 
Q 53.21875 48.921875 51.53125 44.890625 
Q 49.859375 40.875 45.40625 35.40625 
Q 44.1875 33.984375 37.640625 27.21875 
Q 31.109375 20.453125 19.1875 8.296875 
" id="BitstreamVeraSans-Roman-32"/>
      </defs>
      <g transform="translate(235.29 401.918125)scale(0.12 -0.12)">
       <use xlink:href="#BitstreamVeraSans-Roman-32"/>
       <use x="63.623046875" xlink:href="#BitstreamVeraSans-Roman-30"/>
       <use x="127.24609375" xlink:href="#BitstreamVeraSans-Roman-30"/>
       <use x="190.869140625" xlink:href="#BitstreamVeraSans-Roman-30"/>
      </g>
     </g>
    </g>
    <g id="xtick_4">
     <g id="line2d_12">
      <g>
       <use style="stroke:#000000;stroke-width:0.5;" x="339.84" xlink:href="#m363e9b22e9" y="388.8"/>
      </g>
     </g>
     <g id="line2d_13">
      <g>
       <use style="stroke:#000000;stroke-width:0.5;" x="339.84" xlink:href="#mea0e2b2e36" y="43.2"/>
      </g>
     </g>
     <g id="text_4">
      <!-- 3000 -->
      <defs>
       <path d="M 40.578125 39.3125 
Q 47.65625 37.796875 51.625 33 
Q 55.609375 28.21875 55.609375 21.1875 
Q 55.609375 10.40625 48.1875 4.484375 
Q 40.765625 -1.421875 27.09375 -1.421875 
Q 22.515625 -1.421875 17.65625 -0.515625 
Q 12.796875 0.390625 7.625 2.203125 
L 7.625 11.71875 
Q 11.71875 9.328125 16.59375 8.109375 
Q 21.484375 6.890625 26.8125 6.890625 
Q 36.078125 6.890625 40.9375 10.546875 
Q 45.796875 14.203125 45.796875 21.1875 
Q 45.796875 27.640625 41.28125 31.265625 
Q 36.765625 34.90625 28.71875 34.90625 
L 20.21875 34.90625 
L 20.21875 43.015625 
L 29.109375 43.015625 
Q 36.375 43.015625 40.234375 45.921875 
Q 44.09375 48.828125 44.09375 54.296875 
Q 44.09375 59.90625 40.109375 62.90625 
Q 36.140625 65.921875 28.71875 65.921875 
Q 24.65625 65.921875 20.015625 65.03125 
Q 15.375 64.15625 9.8125 62.3125 
L 9.8125 71.09375 
Q 15.4375 72.65625 20.34375 73.4375 
Q 25.25 74.21875 29.59375 74.21875 
Q 40.828125 74.21875 47.359375 69.109375 
Q 53.90625 64.015625 53.90625 55.328125 
Q 53.90625 49.265625 50.4375 45.09375 
Q 46.96875 40.921875 40.578125 39.3125 
" id="BitstreamVeraSans-Roman-33"/>
      </defs>
      <g transform="translate(324.57 401.918125)scale(0.12 -0.12)">
       <use xlink:href="#BitstreamVeraSans-Roman-33"/>
       <use x="63.623046875" xlink:href="#BitstreamVeraSans-Roman-30"/>
       <use x="127.24609375" xlink:href="#BitstreamVeraSans-Roman-30"/>
       <use x="190.869140625" xlink:href="#BitstreamVeraSans-Roman-30"/>
      </g>
     </g>
    </g>
    <g id="xtick_5">
     <g id="line2d_14">
      <g>
       <use style="stroke:#000000;stroke-width:0.5;" x="429.12" xlink:href="#m363e9b22e9" y="388.8"/>
      </g>
     </g>
     <g id="line2d_15">
      <g>
       <use style="stroke:#000000;stroke-width:0.5;" x="429.12" xlink:href="#mea0e2b2e36" y="43.2"/>
      </g>
     </g>
     <g id="text_5">
      <!-- 4000 -->
      <defs>
       <path d="M 37.796875 64.3125 
L 12.890625 25.390625 
L 37.796875 25.390625 
z
M 35.203125 72.90625 
L 47.609375 72.90625 
L 47.609375 25.390625 
L 58.015625 25.390625 
L 58.015625 17.1875 
L 47.609375 17.1875 
L 47.609375 0 
L 37.796875 0 
L 37.796875 17.1875 
L 4.890625 17.1875 
L 4.890625 26.703125 
z
" id="BitstreamVeraSans-Roman-34"/>
      </defs>
      <g transform="translate(413.85 401.918125)scale(0.12 -0.12)">
       <use xlink:href="#BitstreamVeraSans-Roman-34"/>
       <use x="63.623046875" xlink:href="#BitstreamVeraSans-Roman-30"/>
       <use x="127.24609375" xlink:href="#BitstreamVeraSans-Roman-30"/>
       <use x="190.869140625" xlink:href="#BitstreamVeraSans-Roman-30"/>
      </g>
     </g>
    </g>
    <g id="xtick_6">
     <g id="line2d_16">
      <g>
       <use style="stroke:#000000;stroke-width:0.5;" x="518.4" xlink:href="#m363e9b22e9" y="388.8"/>
      </g>
     </g>
     <g id="line2d_17">
      <g>
       <use style="stroke:#000000;stroke-width:0.5;" x="518.4" xlink:href="#mea0e2b2e36" y="43.2"/>
      </g>
     </g>
     <g id="text_6">
      <!-- 5000 -->
      <defs>
       <path d="M 10.796875 72.90625 
L 49.515625 72.90625 
L 49.515625 64.59375 
L 19.828125 64.59375 
L 19.828125 46.734375 
Q 21.96875 47.46875 24.109375 47.828125 
Q 26.265625 48.1875 28.421875 48.1875 
Q 40.625 48.1875 47.75 41.5 
Q 54.890625 34.8125 54.890625 23.390625 
Q 54.890625 11.625 47.5625 5.09375 
Q 40.234375 -1.421875 26.90625 -1.421875 
Q 22.3125 -1.421875 17.546875 -0.640625 
Q 12.796875 0.140625 7.71875 1.703125 
L 7.71875 11.625 
Q 12.109375 9.234375 16.796875 8.0625 
Q 21.484375 6.890625 26.703125 6.890625 
Q 35.15625 6.890625 40.078125 11.328125 
Q 45.015625 15.765625 45.015625 23.390625 
Q 45.015625 31 40.078125 35.4375 
Q 35.15625 39.890625 26.703125 39.890625 
Q 22.75 39.890625 18.8125 39.015625 
Q 14.890625 38.140625 10.796875 36.28125 
z
" id="BitstreamVeraSans-Roman-35"/>
      </defs>
      <g transform="translate(503.13 401.918125)scale(0.12 -0.12)">
       <use xlink:href="#BitstreamVeraSans-Roman-35"/>
       <use x="63.623046875" xlink:href="#BitstreamVeraSans-Roman-30"/>
       <use x="127.24609375" xlink:href="#BitstreamVeraSans-Roman-30"/>
       <use x="190.869140625" xlink:href="#BitstreamVeraSans-Roman-30"/>
      </g>
     </g>
    </g>
    <g id="text_7">
     <!-- Time, s -->
     <defs>
      <path d="M 52 44.1875 
Q 55.375 50.25 60.0625 53.125 
Q 64.75 56 71.09375 56 
Q 79.640625 56 84.28125 50.015625 
Q 88.921875 44.046875 88.921875 33.015625 
L 88.921875 0 
L 79.890625 0 
L 79.890625 32.71875 
Q 79.890625 40.578125 77.09375 44.375 
Q 74.3125 48.1875 68.609375 48.1875 
Q 61.625 48.1875 57.5625 43.546875 
Q 53.515625 38.921875 53.515625 30.90625 
L 53.515625 0 
L 44.484375 0 
L 44.484375 32.71875 
Q 44.484375 40.625 41.703125 44.40625 
Q 38.921875 48.1875 33.109375 48.1875 
Q 26.21875 48.1875 22.15625 43.53125 
Q 18.109375 38.875 18.109375 30.90625 
L 18.109375 0 
L 9.078125 0 
L 9.078125 54.6875 
L 18.109375 54.6875 
L 18.109375 46.1875 
Q 21.1875 51.21875 25.484375 53.609375 
Q 29.78125 56 35.6875 56 
Q 41.65625 56 45.828125 52.96875 
Q 50 49.953125 52 44.1875 
" id="BitstreamVeraSans-Roman-6d"/>
      <path d="M 11.71875 12.40625 
L 22.015625 12.40625 
L 22.015625 4 
L 14.015625 -11.625 
L 7.71875 -11.625 
L 11.71875 4 
z
" id="BitstreamVeraSans-Roman-2c"/>
      <path d="M 9.421875 54.6875 
L 18.40625 54.6875 
L 18.40625 0 
L 9.421875 0 
z
M 9.421875 75.984375 
L 18.40625 75.984375 
L 18.40625 64.59375 
L 9.421875 64.59375 
z
" id="BitstreamVeraSans-Roman-69"/>
      <path d="M 44.28125 53.078125 
L 44.28125 44.578125 
Q 40.484375 46.53125 36.375 47.5 
Q 32.28125 48.484375 27.875 48.484375 
Q 21.1875 48.484375 17.84375 46.4375 
Q 14.5 44.390625 14.5 40.28125 
Q 14.5 37.15625 16.890625 35.375 
Q 19.28125 33.59375 26.515625 31.984375 
L 29.59375 31.296875 
Q 39.15625 29.25 43.1875 25.515625 
Q 47.21875 21.78125 47.21875 15.09375 
Q 47.21875 7.46875 41.1875 3.015625 
Q 35.15625 -1.421875 24.609375 -1.421875 
Q 20.21875 -1.421875 15.453125 -0.5625 
Q 10.6875 0.296875 5.421875 2 
L 5.421875 11.28125 
Q 10.40625 8.6875 15.234375 7.390625 
Q 20.0625 6.109375 24.8125 6.109375 
Q 31.15625 6.109375 34.5625 8.28125 
Q 37.984375 10.453125 37.984375 14.40625 
Q 37.984375 18.0625 35.515625 20.015625 
Q 33.0625 21.96875 24.703125 23.78125 
L 21.578125 24.515625 
Q 13.234375 26.265625 9.515625 29.90625 
Q 5.8125 33.546875 5.8125 39.890625 
Q 5.8125 47.609375 11.28125 51.796875 
Q 16.75 56 26.8125 56 
Q 31.78125 56 36.171875 55.265625 
Q 40.578125 54.546875 44.28125 53.078125 
" id="BitstreamVeraSans-Roman-73"/>
      <path id="BitstreamVeraSans-Roman-20"/>
      <path d="M -0.296875 72.90625 
L 61.375 72.90625 
L 61.375 64.59375 
L 35.5 64.59375 
L 35.5 0 
L 25.59375 0 
L 25.59375 64.59375 
L -0.296875 64.59375 
z
" id="BitstreamVeraSans-Roman-54"/>
      <path d="M 56.203125 29.59375 
L 56.203125 25.203125 
L 14.890625 25.203125 
Q 15.484375 15.921875 20.484375 11.0625 
Q 25.484375 6.203125 34.421875 6.203125 
Q 39.59375 6.203125 44.453125 7.46875 
Q 49.3125 8.734375 54.109375 11.28125 
L 54.109375 2.78125 
Q 49.265625 0.734375 44.1875 -0.34375 
Q 39.109375 -1.421875 33.890625 -1.421875 
Q 20.796875 -1.421875 13.15625 6.1875 
Q 5.515625 13.8125 5.515625 26.8125 
Q 5.515625 40.234375 12.765625 48.109375 
Q 20.015625 56 32.328125 56 
Q 43.359375 56 49.78125 48.890625 
Q 56.203125 41.796875 56.203125 29.59375 
M 47.21875 32.234375 
Q 47.125 39.59375 43.09375 43.984375 
Q 39.0625 48.390625 32.421875 48.390625 
Q 24.90625 48.390625 20.390625 44.140625 
Q 15.875 39.890625 15.1875 32.171875 
z
" id="BitstreamVeraSans-Roman-65"/>
     </defs>
     <g transform="translate(273.395625 418.531875)scale(0.12 -0.12)">
      <use xlink:href="#BitstreamVeraSans-Roman-54"/>
      <use x="61.037109375" xlink:href="#BitstreamVeraSans-Roman-69"/>
      <use x="88.8203125" xlink:href="#BitstreamVeraSans-Roman-6d"/>
      <use x="186.232421875" xlink:href="#BitstreamVeraSans-Roman-65"/>
      <use x="247.755859375" xlink:href="#BitstreamVeraSans-Roman-2c"/>
      <use x="279.54296875" xlink:href="#BitstreamVeraSans-Roman-20"/>
      <use x="311.330078125" xlink:href="#BitstreamVeraSans-Roman-73"/>
     </g>
    </g>
   </g>
   <g id="matplotlib.axis_2">
    <g id="ytick_1">
     <g id="line2d_18">
      <defs>
       <path d="M 0 0 
L 4 0 
" id="m2ef20a1cc3" style="stroke:#000000;stroke-width:0.5;"/>
      </defs>
      <g>
       <use style="stroke:#000000;stroke-width:0.5;" x="72.0" xlink:href="#m2ef20a1cc3" y="388.8"/>
      </g>
     </g>
     <g id="line2d_19">
      <defs>
       <path d="M 0 0 
L -4 0 
" id="m47be758ab0" style="stroke:#000000;stroke-width:0.5;"/>
      </defs>
      <g>
       <use style="stroke:#000000;stroke-width:0.5;" x="518.4" xlink:href="#m47be758ab0" y="388.8"/>
      </g>
     </g>
     <g id="text_8">
      <!-- 30 -->
      <g transform="translate(52.73 392.11125)scale(0.12 -0.12)">
       <use xlink:href="#BitstreamVeraSans-Roman-33"/>
       <use x="63.623046875" xlink:href="#BitstreamVeraSans-Roman-30"/>
      </g>
     </g>
    </g>
    <g id="ytick_2">
     <g id="line2d_20">
      <g>
       <use style="stroke:#000000;stroke-width:0.5;" x="72.0" xlink:href="#m2ef20a1cc3" y="339.428571429"/>
      </g>
     </g>
     <g id="line2d_21">
      <g>
       <use style="stroke:#000000;stroke-width:0.5;" x="518.4" xlink:href="#m47be758ab0" y="339.428571429"/>
      </g>
     </g>
     <g id="text_9">
      <!-- 40 -->
      <g transform="translate(52.73 342.739821429)scale(0.12 -0.12)">
       <use xlink:href="#BitstreamVeraSans-Roman-34"/>
       <use x="63.623046875" xlink:href="#BitstreamVeraSans-Roman-30"/>
      </g>
     </g>
    </g>
    <g id="ytick_3">
     <g id="line2d_22">
      <g>
       <use style="stroke:#000000;stroke-width:0.5;" x="72.0" xlink:href="#m2ef20a1cc3" y="290.057142857"/>
      </g>
     </g>
     <g id="line2d_23">
      <g>
       <use style="stroke:#000000;stroke-width:0.5;" x="518.4" xlink:href="#m47be758ab0" y="290.057142857"/>
      </g>
     </g>
     <g id="text_10">
      <!-- 50 -->
      <g transform="translate(52.73 293.368392857)scale(0.12 -0.12)">
       <use xlink:href="#BitstreamVeraSans-Roman-35"/>
       <use x="63.623046875" xlink:href="#BitstreamVeraSans-Roman-30"/>
      </g>
     </g>
    </g>
    <g id="ytick_4">
     <g id="line2d_24">
      <g>
       <use style="stroke:#000000;stroke-width:0.5;" x="72.0" xlink:href="#m2ef20a1cc3" y="240.685714286"/>
      </g>
     </g>
     <g id="line2d_25">
      <g>
       <use style="stroke:#000000;stroke-width:0.5;" x="518.4" xlink:href="#m47be758ab0" y="240.685714286"/>
      </g>
     </g>
     <g id="text_11">
      <!-- 60 -->
      <defs>
       <path d="M 33.015625 40.375 
Q 26.375 40.375 22.484375 35.828125 
Q 18.609375 31.296875 18.609375 23.390625 
Q 18.609375 15.53125 22.484375 10.953125 
Q 26.375 6.390625 33.015625 6.390625 
Q 39.65625 6.390625 43.53125 10.953125 
Q 47.40625 15.53125 47.40625 23.390625 
Q 47.40625 31.296875 43.53125 35.828125 
Q 39.65625 40.375 33.015625 40.375 
M 52.59375 71.296875 
L 52.59375 62.3125 
Q 48.875 64.0625 45.09375 64.984375 
Q 41.3125 65.921875 37.59375 65.921875 
Q 27.828125 65.921875 22.671875 59.328125 
Q 17.53125 52.734375 16.796875 39.40625 
Q 19.671875 43.65625 24.015625 45.921875 
Q 28.375 48.1875 33.59375 48.1875 
Q 44.578125 48.1875 50.953125 41.515625 
Q 57.328125 34.859375 57.328125 23.390625 
Q 57.328125 12.15625 50.6875 5.359375 
Q 44.046875 -1.421875 33.015625 -1.421875 
Q 20.359375 -1.421875 13.671875 8.265625 
Q 6.984375 17.96875 6.984375 36.375 
Q 6.984375 53.65625 15.1875 63.9375 
Q 23.390625 74.21875 37.203125 74.21875 
Q 40.921875 74.21875 44.703125 73.484375 
Q 48.484375 72.75 52.59375 71.296875 
" id="BitstreamVeraSans-Roman-36"/>
      </defs>
      <g transform="translate(52.73 243.996964286)scale(0.12 -0.12)">
       <use xlink:href="#BitstreamVeraSans-Roman-36"/>
       <use x="63.623046875" xlink:href="#BitstreamVeraSans-Roman-30"/>
      </g>
     </g>
    </g>
    <g id="ytick_5">
     <g id="line2d_26">
      <g>
       <use style="stroke:#000000;stroke-width:0.5;" x="72.0" xlink:href="#m2ef20a1cc3" y="191.314285714"/>
      </g>
     </g>
     <g id="line2d_27">
      <g>
       <use style="stroke:#000000;stroke-width:0.5;" x="518.4" xlink:href="#m47be758ab0" y="191.314285714"/>
      </g>
     </g>
     <g id="text_12">
      <!-- 70 -->
      <defs>
       <path d="M 8.203125 72.90625 
L 55.078125 72.90625 
L 55.078125 68.703125 
L 28.609375 0 
L 18.3125 0 
L 43.21875 64.59375 
L 8.203125 64.59375 
z
" id="BitstreamVeraSans-Roman-37"/>
      </defs>
      <g transform="translate(52.73 194.625535714)scale(0.12 -0.12)">
       <use xlink:href="#BitstreamVeraSans-Roman-37"/>
       <use x="63.623046875" xlink:href="#BitstreamVeraSans-Roman-30"/>
      </g>
     </g>
    </g>
    <g id="ytick_6">
     <g id="line2d_28">
      <g>
       <use style="stroke:#000000;stroke-width:0.5;" x="72.0" xlink:href="#m2ef20a1cc3" y="141.942857143"/>
      </g>
     </g>
     <g id="line2d_29">
      <g>
       <use style="stroke:#000000;stroke-width:0.5;" x="518.4" xlink:href="#m47be758ab0" y="141.942857143"/>
      </g>
     </g>
     <g id="text_13">
      <!-- 80 -->
      <defs>
       <path d="M 31.78125 34.625 
Q 24.75 34.625 20.71875 30.859375 
Q 16.703125 27.09375 16.703125 20.515625 
Q 16.703125 13.921875 20.71875 10.15625 
Q 24.75 6.390625 31.78125 6.390625 
Q 38.8125 6.390625 42.859375 10.171875 
Q 46.921875 13.96875 46.921875 20.515625 
Q 46.921875 27.09375 42.890625 30.859375 
Q 38.875 34.625 31.78125 34.625 
M 21.921875 38.8125 
Q 15.578125 40.375 12.03125 44.71875 
Q 8.5 49.078125 8.5 55.328125 
Q 8.5 64.0625 14.71875 69.140625 
Q 20.953125 74.21875 31.78125 74.21875 
Q 42.671875 74.21875 48.875 69.140625 
Q 55.078125 64.0625 55.078125 55.328125 
Q 55.078125 49.078125 51.53125 44.71875 
Q 48 40.375 41.703125 38.8125 
Q 48.828125 37.15625 52.796875 32.3125 
Q 56.78125 27.484375 56.78125 20.515625 
Q 56.78125 9.90625 50.3125 4.234375 
Q 43.84375 -1.421875 31.78125 -1.421875 
Q 19.734375 -1.421875 13.25 4.234375 
Q 6.78125 9.90625 6.78125 20.515625 
Q 6.78125 27.484375 10.78125 32.3125 
Q 14.796875 37.15625 21.921875 38.8125 
M 18.3125 54.390625 
Q 18.3125 48.734375 21.84375 45.5625 
Q 25.390625 42.390625 31.78125 42.390625 
Q 38.140625 42.390625 41.71875 45.5625 
Q 45.3125 48.734375 45.3125 54.390625 
Q 45.3125 60.0625 41.71875 63.234375 
Q 38.140625 66.40625 31.78125 66.40625 
Q 25.390625 66.40625 21.84375 63.234375 
Q 18.3125 60.0625 18.3125 54.390625 
" id="BitstreamVeraSans-Roman-38"/>
      </defs>
      <g transform="translate(52.73 145.254107143)scale(0.12 -0.12)">
       <use xlink:href="#BitstreamVeraSans-Roman-38"/>
       <use x="63.623046875" xlink:href="#BitstreamVeraSans-Roman-30"/>
      </g>
     </g>
    </g>
    <g id="ytick_7">
     <g id="line2d_30">
      <g>
       <use style="stroke:#000000;stroke-width:0.5;" x="72.0" xlink:href="#m2ef20a1cc3" y="92.5714285714"/>
      </g>
     </g>
     <g id="line2d_31">
      <g>
       <use style="stroke:#000000;stroke-width:0.5;" x="518.4" xlink:href="#m47be758ab0" y="92.5714285714"/>
      </g>
     </g>
     <g id="text_14">
      <!-- 90 -->
      <defs>
       <path d="M 10.984375 1.515625 
L 10.984375 10.5 
Q 14.703125 8.734375 18.5 7.8125 
Q 22.3125 6.890625 25.984375 6.890625 
Q 35.75 6.890625 40.890625 13.453125 
Q 46.046875 20.015625 46.78125 33.40625 
Q 43.953125 29.203125 39.59375 26.953125 
Q 35.25 24.703125 29.984375 24.703125 
Q 19.046875 24.703125 12.671875 31.3125 
Q 6.296875 37.9375 6.296875 49.421875 
Q 6.296875 60.640625 12.9375 67.421875 
Q 19.578125 74.21875 30.609375 74.21875 
Q 43.265625 74.21875 49.921875 64.515625 
Q 56.59375 54.828125 56.59375 36.375 
Q 56.59375 19.140625 48.40625 8.859375 
Q 40.234375 -1.421875 26.421875 -1.421875 
Q 22.703125 -1.421875 18.890625 -0.6875 
Q 15.09375 0.046875 10.984375 1.515625 
M 30.609375 32.421875 
Q 37.25 32.421875 41.125 36.953125 
Q 45.015625 41.5 45.015625 49.421875 
Q 45.015625 57.28125 41.125 61.84375 
Q 37.25 66.40625 30.609375 66.40625 
Q 23.96875 66.40625 20.09375 61.84375 
Q 16.21875 57.28125 16.21875 49.421875 
Q 16.21875 41.5 20.09375 36.953125 
Q 23.96875 32.421875 30.609375 32.421875 
" id="BitstreamVeraSans-Roman-39"/>
      </defs>
      <g transform="translate(52.73 95.8826785714)scale(0.12 -0.12)">
       <use xlink:href="#BitstreamVeraSans-Roman-39"/>
       <use x="63.623046875" xlink:href="#BitstreamVeraSans-Roman-30"/>
      </g>
     </g>
    </g>
    <g id="ytick_8">
     <g id="line2d_32">
      <g>
       <use style="stroke:#000000;stroke-width:0.5;" x="72.0" xlink:href="#m2ef20a1cc3" y="43.2"/>
      </g>
     </g>
     <g id="line2d_33">
      <g>
       <use style="stroke:#000000;stroke-width:0.5;" x="518.4" xlink:href="#m47be758ab0" y="43.2"/>
      </g>
     </g>
     <g id="text_15">
      <!-- 100 -->
      <g transform="translate(45.095 46.51125)scale(0.12 -0.12)">
       <use xlink:href="#BitstreamVeraSans-Roman-31"/>
       <use x="63.623046875" xlink:href="#BitstreamVeraSans-Roman-30"/>
       <use x="127.24609375" xlink:href="#BitstreamVeraSans-Roman-30"/>
      </g>
     </g>
    </g>
    <g id="text_16">
     <!-- Temperature, °C -->
     <defs>
      <path d="M 8.5 21.578125 
L 8.5 54.6875 
L 17.484375 54.6875 
L 17.484375 21.921875 
Q 17.484375 14.15625 20.5 10.265625 
Q 23.53125 6.390625 29.59375 6.390625 
Q 36.859375 6.390625 41.078125 11.03125 
Q 45.3125 15.671875 45.3125 23.6875 
L 45.3125 54.6875 
L 54.296875 54.6875 
L 54.296875 0 
L 45.3125 0 
L 45.3125 8.40625 
Q 42.046875 3.421875 37.71875 1 
Q 33.40625 -1.421875 27.6875 -1.421875 
Q 18.265625 -1.421875 13.375 4.4375 
Q 8.5 10.296875 8.5 21.578125 
" id="BitstreamVeraSans-Roman-75"/>
      <path d="M 25 67.921875 
Q 21.09375 67.921875 18.40625 65.203125 
Q 15.71875 62.5 15.71875 58.59375 
Q 15.71875 54.734375 18.40625 52.078125 
Q 21.09375 49.421875 25 49.421875 
Q 28.90625 49.421875 31.59375 52.078125 
Q 34.28125 54.734375 34.28125 58.59375 
Q 34.28125 62.453125 31.5625 65.1875 
Q 28.859375 67.921875 25 67.921875 
M 25 74.21875 
Q 28.125 74.21875 31 73.015625 
Q 33.890625 71.828125 35.984375 69.578125 
Q 38.234375 67.390625 39.359375 64.59375 
Q 40.484375 61.8125 40.484375 58.59375 
Q 40.484375 52.15625 35.96875 47.6875 
Q 31.453125 43.21875 24.90625 43.21875 
Q 18.3125 43.21875 13.90625 47.609375 
Q 9.515625 52 9.515625 58.59375 
Q 9.515625 65.140625 14 69.671875 
Q 18.5 74.21875 25 74.21875 
" id="BitstreamVeraSans-Roman-b0"/>
      <path d="M 34.28125 27.484375 
Q 23.390625 27.484375 19.1875 25 
Q 14.984375 22.515625 14.984375 16.5 
Q 14.984375 11.71875 18.140625 8.90625 
Q 21.296875 6.109375 26.703125 6.109375 
Q 34.1875 6.109375 38.703125 11.40625 
Q 43.21875 16.703125 43.21875 25.484375 
L 43.21875 27.484375 
z
M 52.203125 31.203125 
L 52.203125 0 
L 43.21875 0 
L 43.21875 8.296875 
Q 40.140625 3.328125 35.546875 0.953125 
Q 30.953125 -1.421875 24.3125 -1.421875 
Q 15.921875 -1.421875 10.953125 3.296875 
Q 6 8.015625 6 15.921875 
Q 6 25.140625 12.171875 29.828125 
Q 18.359375 34.515625 30.609375 34.515625 
L 43.21875 34.515625 
L 43.21875 35.40625 
Q 43.21875 41.609375 39.140625 45 
Q 35.0625 48.390625 27.6875 48.390625 
Q 23 48.390625 18.546875 47.265625 
Q 14.109375 46.140625 10.015625 43.890625 
L 10.015625 52.203125 
Q 14.9375 54.109375 19.578125 55.046875 
Q 24.21875 56 28.609375 56 
Q 40.484375 56 46.34375 49.84375 
Q 52.203125 43.703125 52.203125 31.203125 
" id="BitstreamVeraSans-Roman-61"/>
      <path d="M 64.40625 67.28125 
L 64.40625 56.890625 
Q 59.421875 61.53125 53.78125 63.8125 
Q 48.140625 66.109375 41.796875 66.109375 
Q 29.296875 66.109375 22.65625 58.46875 
Q 16.015625 50.828125 16.015625 36.375 
Q 16.015625 21.96875 22.65625 14.328125 
Q 29.296875 6.6875 41.796875 6.6875 
Q 48.140625 6.6875 53.78125 8.984375 
Q 59.421875 11.28125 64.40625 15.921875 
L 64.40625 5.609375 
Q 59.234375 2.09375 53.4375 0.328125 
Q 47.65625 -1.421875 41.21875 -1.421875 
Q 24.65625 -1.421875 15.125 8.703125 
Q 5.609375 18.84375 5.609375 36.375 
Q 5.609375 53.953125 15.125 64.078125 
Q 24.65625 74.21875 41.21875 74.21875 
Q 47.75 74.21875 53.53125 72.484375 
Q 59.328125 70.75 64.40625 67.28125 
" id="BitstreamVeraSans-Roman-43"/>
      <path d="M 41.109375 46.296875 
Q 39.59375 47.171875 37.8125 47.578125 
Q 36.03125 48 33.890625 48 
Q 26.265625 48 22.1875 43.046875 
Q 18.109375 38.09375 18.109375 28.8125 
L 18.109375 0 
L 9.078125 0 
L 9.078125 54.6875 
L 18.109375 54.6875 
L 18.109375 46.1875 
Q 20.953125 51.171875 25.484375 53.578125 
Q 30.03125 56 36.53125 56 
Q 37.453125 56 38.578125 55.875 
Q 39.703125 55.765625 41.0625 55.515625 
z
" id="BitstreamVeraSans-Roman-72"/>
      <path d="M 18.109375 8.203125 
L 18.109375 -20.796875 
L 9.078125 -20.796875 
L 9.078125 54.6875 
L 18.109375 54.6875 
L 18.109375 46.390625 
Q 20.953125 51.265625 25.265625 53.625 
Q 29.59375 56 35.59375 56 
Q 45.5625 56 51.78125 48.09375 
Q 58.015625 40.1875 58.015625 27.296875 
Q 58.015625 14.40625 51.78125 6.484375 
Q 45.5625 -1.421875 35.59375 -1.421875 
Q 29.59375 -1.421875 25.265625 0.953125 
Q 20.953125 3.328125 18.109375 8.203125 
M 48.6875 27.296875 
Q 48.6875 37.203125 44.609375 42.84375 
Q 40.53125 48.484375 33.40625 48.484375 
Q 26.265625 48.484375 22.1875 42.84375 
Q 18.109375 37.203125 18.109375 27.296875 
Q 18.109375 17.390625 22.1875 11.75 
Q 26.265625 6.109375 33.40625 6.109375 
Q 40.53125 6.109375 44.609375 11.75 
Q 48.6875 17.390625 48.6875 27.296875 
" id="BitstreamVeraSans-Roman-70"/>
      <path d="M 18.3125 70.21875 
L 18.3125 54.6875 
L 36.8125 54.6875 
L 36.8125 47.703125 
L 18.3125 47.703125 
L 18.3125 18.015625 
Q 18.3125 11.328125 20.140625 9.421875 
Q 21.96875 7.515625 27.59375 7.515625 
L 36.8125 7.515625 
L 36.8125 0 
L 27.59375 0 
Q 17.1875 0 13.234375 3.875 
Q 9.28125 7.765625 9.28125 18.015625 
L 9.28125 47.703125 
L 2.6875 47.703125 
L 2.6875 54.6875 
L 9.28125 54.6875 
L 9.28125 70.21875 
z
" id="BitstreamVeraSans-Roman-74"/>
     </defs>
     <g transform="translate(37.599375 266.1440625)rotate(-90.0)scale(0.12 -0.12)">
      <use xlink:href="#BitstreamVeraSans-Roman-54"/>
      <use x="60.818359375" xlink:href="#BitstreamVeraSans-Roman-65"/>
      <use x="122.341796875" xlink:href="#BitstreamVeraSans-Roman-6d"/>
      <use x="219.75390625" xlink:href="#BitstreamVeraSans-Roman-70"/>
      <use x="283.23046875" xlink:href="#BitstreamVeraSans-Roman-65"/>
      <use x="344.75390625" xlink:href="#BitstreamVeraSans-Roman-72"/>
      <use x="385.8671875" xlink:href="#BitstreamVeraSans-Roman-61"/>
      <use x="447.146484375" xlink:href="#BitstreamVeraSans-Roman-74"/>
      <use x="486.35546875" xlink:href="#BitstreamVeraSans-Roman-75"/>
      <use x="549.734375" xlink:href="#BitstreamVeraSans-Roman-72"/>
      <use x="590.81640625" xlink:href="#BitstreamVeraSans-Roman-65"/>
      <use x="652.33984375" xlink:href="#BitstreamVeraSans-Roman-2c"/>
      <use x="684.126953125" xlink:href="#BitstreamVeraSans-Roman-20"/>
      <use x="715.9140625" xlink:href="#BitstreamVeraSans-Roman-b0"/>
      <use x="765.9140625" xlink:href="#BitstreamVeraSans-Roman-43"/>
     </g>
    </g>
   </g>
   <g id="legend_1">
    <g id="patch_7">
     <path d="M 340.0065 160.4025 
L 511.2 160.4025 
L 511.2 50.4 
L 340.0065 50.4 
z
" style="fill:#ffffff;stroke:#000000;stroke-linejoin:miter;"/>
    </g>
    <g id="line2d_34">
     <path d="M 350.0865 62.06175 
L 370.2465 62.06175 
" style="fill:none;stroke:#0000ff;stroke-linecap:square;"/>
    </g>
    <g id="line2d_35">
     <g>
      <use style="fill:#0000ff;stroke:#000000;stroke-width:0.5;" x="350.0865" xlink:href="#m5e95ad2a3c" y="62.06175"/>
      <use style="fill:#0000ff;stroke:#000000;stroke-width:0.5;" x="370.2465" xlink:href="#m5e95ad2a3c" y="62.06175"/>
     </g>
    </g>
    <g id="text_17">
     <!-- 1: 44.9, 0.00030 -->
     <defs>
      <path d="M 10.6875 12.40625 
L 21 12.40625 
L 21 0 
L 10.6875 0 
z
" id="BitstreamVeraSans-Roman-2e"/>
      <path d="M 11.71875 12.40625 
L 22.015625 12.40625 
L 22.015625 0 
L 11.71875 0 
z
M 11.71875 51.703125 
L 22.015625 51.703125 
L 22.015625 39.3125 
L 11.71875 39.3125 
z
" id="BitstreamVeraSans-Roman-3a"/>
     </defs>
     <g transform="translate(386.0865 67.10175)scale(0.144 -0.144)">
      <use xlink:href="#BitstreamVeraSans-Roman-31"/>
      <use x="63.623046875" xlink:href="#BitstreamVeraSans-Roman-3a"/>
      <use x="97.314453125" xlink:href="#BitstreamVeraSans-Roman-20"/>
      <use x="129.1015625" xlink:href="#BitstreamVeraSans-Roman-34"/>
      <use x="192.724609375" xlink:href="#BitstreamVeraSans-Roman-34"/>
      <use x="256.34765625" xlink:href="#BitstreamVeraSans-Roman-2e"/>
      <use x="288.134765625" xlink:href="#BitstreamVeraSans-Roman-39"/>
      <use x="351.7578125" xlink:href="#BitstreamVeraSans-Roman-2c"/>
      <use x="383.544921875" xlink:href="#BitstreamVeraSans-Roman-20"/>
      <use x="415.33203125" xlink:href="#BitstreamVeraSans-Roman-30"/>
      <use x="478.955078125" xlink:href="#BitstreamVeraSans-Roman-2e"/>
      <use x="510.7421875" xlink:href="#BitstreamVeraSans-Roman-30"/>
      <use x="574.365234375" xlink:href="#BitstreamVeraSans-Roman-30"/>
      <use x="637.98828125" xlink:href="#BitstreamVeraSans-Roman-30"/>
      <use x="701.611328125" xlink:href="#BitstreamVeraSans-Roman-33"/>
      <use x="765.234375" xlink:href="#BitstreamVeraSans-Roman-30"/>
     </g>
    </g>
    <g id="line2d_36">
     <path d="M 350.0865 83.19825 
L 370.2465 83.19825 
" style="fill:none;stroke:#008000;stroke-linecap:square;"/>
    </g>
    <g id="line2d_37">
     <g>
      <use style="fill:#008000;stroke:#000000;stroke-width:0.5;" x="350.0865" xlink:href="#m4f63781bba" y="83.19825"/>
      <use style="fill:#008000;stroke:#000000;stroke-width:0.5;" x="370.2465" xlink:href="#m4f63781bba" y="83.19825"/>
     </g>
    </g>
    <g id="text_18">
     <!-- 2: 51.4, 0.00056 -->
     <g transform="translate(386.0865 88.23825)scale(0.144 -0.144)">
      <use xlink:href="#BitstreamVeraSans-Roman-32"/>
      <use x="63.623046875" xlink:href="#BitstreamVeraSans-Roman-3a"/>
      <use x="97.314453125" xlink:href="#BitstreamVeraSans-Roman-20"/>
      <use x="129.1015625" xlink:href="#BitstreamVeraSans-Roman-35"/>
      <use x="192.724609375" xlink:href="#BitstreamVeraSans-Roman-31"/>
      <use x="256.34765625" xlink:href="#BitstreamVeraSans-Roman-2e"/>
      <use x="288.134765625" xlink:href="#BitstreamVeraSans-Roman-34"/>
      <use x="351.7578125" xlink:href="#BitstreamVeraSans-Roman-2c"/>
      <use x="383.544921875" xlink:href="#BitstreamVeraSans-Roman-20"/>
      <use x="415.33203125" xlink:href="#BitstreamVeraSans-Roman-30"/>
      <use x="478.955078125" xlink:href="#BitstreamVeraSans-Roman-2e"/>
      <use x="510.7421875" xlink:href="#BitstreamVeraSans-Roman-30"/>
      <use x="574.365234375" xlink:href="#BitstreamVeraSans-Roman-30"/>
      <use x="637.98828125" xlink:href="#BitstreamVeraSans-Roman-30"/>
      <use x="701.611328125" xlink:href="#BitstreamVeraSans-Roman-35"/>
      <use x="765.234375" xlink:href="#BitstreamVeraSans-Roman-36"/>
     </g>
    </g>
    <g id="line2d_38">
     <path d="M 350.0865 104.33475 
L 370.2465 104.33475 
" style="fill:none;stroke:#ff0000;stroke-linecap:square;"/>
    </g>
    <g id="line2d_39">
     <g>
      <use style="fill:#ff0000;stroke:#000000;stroke-width:0.5;" x="350.0865" xlink:href="#m658bd06a79" y="104.33475"/>
      <use style="fill:#ff0000;stroke:#000000;stroke-width:0.5;" x="370.2465" xlink:href="#m658bd06a79" y="104.33475"/>
     </g>
    </g>
    <g id="text_19">
     <!-- 3: 51.5, 0.00062 -->
     <g transform="translate(386.0865 109.37475)scale(0.144 -0.144)">
      <use xlink:href="#BitstreamVeraSans-Roman-33"/>
      <use x="63.623046875" xlink:href="#BitstreamVeraSans-Roman-3a"/>
      <use x="97.314453125" xlink:href="#BitstreamVeraSans-Roman-20"/>
      <use x="129.1015625" xlink:href="#BitstreamVeraSans-Roman-35"/>
      <use x="192.724609375" xlink:href="#BitstreamVeraSans-Roman-31"/>
      <use x="256.34765625" xlink:href="#BitstreamVeraSans-Roman-2e"/>
      <use x="288.134765625" xlink:href="#BitstreamVeraSans-Roman-35"/>
      <use x="351.7578125" xlink:href="#BitstreamVeraSans-Roman-2c"/>
      <use x="383.544921875" xlink:href="#BitstreamVeraSans-Roman-20"/>
      <use x="415.33203125" xlink:href="#BitstreamVeraSans-Roman-30"/>
      <use x="478.955078125" xlink:href="#BitstreamVeraSans-Roman-2e"/>
      <use x="510.7421875" xlink:href="#BitstreamVeraSans-Roman-30"/>
      <use x="574.365234375" xlink:href="#BitstreamVeraSans-Roman-30"/>
      <use x="637.98828125" xlink:href="#BitstreamVeraSans-Roman-30"/>
      <use x="701.611328125" xlink:href="#BitstreamVeraSans-Roman-36"/>
      <use x="765.234375" xlink:href="#BitstreamVeraSans-Roman-32"/>
     </g>
    </g>
    <g id="line2d_40">
     <path d="M 350.0865 125.47125 
L 370.2465 125.47125 
" style="fill:none;stroke:#00bfbf;stroke-linecap:square;"/>
    </g>
    <g id="line2d_41">
     <g>
      <use style="fill:#00bfbf;stroke:#000000;stroke-width:0.5;" x="350.0865" xlink:href="#mc2a7ff897a" y="125.47125"/>
      <use style="fill:#00bfbf;stroke:#000000;stroke-width:0.5;" x="370.2465" xlink:href="#mc2a7ff897a" y="125.47125"/>
     </g>
    </g>
    <g id="text_20">
     <!-- 4: 41.1, 0.00078 -->
     <g transform="translate(386.0865 130.51125)scale(0.144 -0.144)">
      <use xlink:href="#BitstreamVeraSans-Roman-34"/>
      <use x="63.623046875" xlink:href="#BitstreamVeraSans-Roman-3a"/>
      <use x="97.314453125" xlink:href="#BitstreamVeraSans-Roman-20"/>
      <use x="129.1015625" xlink:href="#BitstreamVeraSans-Roman-34"/>
      <use x="192.724609375" xlink:href="#BitstreamVeraSans-Roman-31"/>
      <use x="256.34765625" xlink:href="#BitstreamVeraSans-Roman-2e"/>
      <use x="288.134765625" xlink:href="#BitstreamVeraSans-Roman-31"/>
      <use x="351.7578125" xlink:href="#BitstreamVeraSans-Roman-2c"/>
      <use x="383.544921875" xlink:href="#BitstreamVeraSans-Roman-20"/>
      <use x="415.33203125" xlink:href="#BitstreamVeraSans-Roman-30"/>
      <use x="478.955078125" xlink:href="#BitstreamVeraSans-Roman-2e"/>
      <use x="510.7421875" xlink:href="#BitstreamVeraSans-Roman-30"/>
      <use x="574.365234375" xlink:href="#BitstreamVeraSans-Roman-30"/>
      <use x="637.98828125" xlink:href="#BitstreamVeraSans-Roman-30"/>
      <use x="701.611328125" xlink:href="#BitstreamVeraSans-Roman-37"/>
      <use x="765.234375" xlink:href="#BitstreamVeraSans-Roman-38"/>
     </g>
    </g>
    <g id="line2d_42">
     <path d="M 350.0865 146.60775 
L 370.2465 146.60775 
" style="fill:none;stroke:#bf00bf;stroke-linecap:square;"/>
    </g>
    <g id="line2d_43">
     <g>
      <use style="fill:#bf00bf;stroke:#000000;stroke-width:0.5;" x="350.0865" xlink:href="#m1f8a9653da" y="146.60775"/>
      <use style="fill:#bf00bf;stroke:#000000;stroke-width:0.5;" x="370.2465" xlink:href="#m1f8a9653da" y="146.60775"/>
     </g>
    </g>
    <g id="text_21">
     <!-- 5: 41.6, 0.00081 -->
     <g transform="translate(386.0865 151.64775)scale(0.144 -0.144)">
      <use xlink:href="#BitstreamVeraSans-Roman-35"/>
      <use x="63.623046875" xlink:href="#BitstreamVeraSans-Roman-3a"/>
      <use x="97.314453125" xlink:href="#BitstreamVeraSans-Roman-20"/>
      <use x="129.1015625" xlink:href="#BitstreamVeraSans-Roman-34"/>
      <use x="192.724609375" xlink:href="#BitstreamVeraSans-Roman-31"/>
      <use x="256.34765625" xlink:href="#BitstreamVeraSans-Roman-2e"/>
      <use x="288.134765625" xlink:href="#BitstreamVeraSans-Roman-36"/>
      <use x="351.7578125" xlink:href="#BitstreamVeraSans-Roman-2c"/>
      <use x="383.544921875" xlink:href="#BitstreamVeraSans-Roman-20"/>
      <use x="415.33203125" xlink:href="#BitstreamVeraSans-Roman-30"/>
      <use x="478.955078125" xlink:href="#BitstreamVeraSans-Roman-2e"/>
      <use x="510.7421875" xlink:href="#BitstreamVeraSans-Roman-30"/>
      <use x="574.365234375" xlink:href="#BitstreamVeraSans-Roman-30"/>
      <use x="637.98828125" xlink:href="#BitstreamVeraSans-Roman-30"/>
      <use x="701.611328125" xlink:href="#BitstreamVeraSans-Roman-38"/>
      <use x="765.234375" xlink:href="#BitstreamVeraSans-Roman-31"/>
     </g>
    </g>
   </g>
  </g>
 </g>
 <defs>
  <clipPath id="paea0ca40b6">
   <rect height="345.6" width="446.4" x="72.0" y="43.2"/>
  </clipPath>
 </defs>
</svg>
